<svg width="157" height="76" viewBox="0 0 157 76" fill="none" xmlns="http://www.w3.org/2000/svg">
<path d="M1.2141 17.19V12.8395H9.34182V37.425H4.48542V17.19H1.2141ZM14.0062 24.8119C14.0062 20.9223 14.7031 17.8758 16.0971 15.6724C17.5136 13.4691 19.8518 12.3674 23.1119 12.3674C26.372 12.3674 28.699 13.4691 30.093 15.6724C31.5094 17.8758 32.2177 20.9223 32.2177 24.8119C32.2177 28.724 31.5094 31.793 30.093 34.0188C28.699 36.2447 26.372 37.3576 23.1119 37.3576C19.8518 37.3576 17.5136 36.2447 16.0971 34.0188C14.7031 31.793 14.0062 28.724 14.0062 24.8119ZM27.5636 24.8119C27.5636 23.1481 27.4512 21.7542 27.2264 20.63C27.024 19.4833 26.5968 18.5503 25.9448 17.8308C25.3153 17.1114 24.371 16.7516 23.1119 16.7516C21.8528 16.7516 20.8973 17.1114 20.2453 17.8308C19.6157 18.5503 19.1886 19.4833 18.9637 20.63C18.7614 21.7542 18.6602 23.1481 18.6602 24.8119C18.6602 26.5206 18.7614 27.9596 18.9637 29.1287C19.1661 30.2753 19.5933 31.2084 20.2453 31.9279C20.8973 32.6249 21.8528 32.9733 23.1119 32.9733C24.371 32.9733 25.3265 32.6249 25.9785 31.9279C26.6305 31.2084 27.0577 30.2753 27.2601 29.1287C27.4624 27.9596 27.5636 26.5206 27.5636 24.8119ZM35.8088 24.8119C35.8088 20.9223 36.5058 17.8758 37.8998 15.6724C39.3162 13.4691 41.6545 12.3674 44.9146 12.3674C48.1747 12.3674 50.5017 13.4691 51.8957 15.6724C53.3121 17.8758 54.0203 20.9223 54.0203 24.8119C54.0203 28.724 53.3121 31.793 51.8957 34.0188C50.5017 36.2447 48.1747 37.3576 44.9146 37.3576C41.6545 37.3576 39.3162 36.2447 37.8998 34.0188C36.5058 31.793 35.8088 28.724 35.8088 24.8119ZM49.3663 24.8119C49.3663 23.1481 49.2539 21.7542 49.029 20.63C48.8267 19.4833 48.3995 18.5503 47.7475 17.8308C47.1179 17.1114 46.1736 16.7516 44.9146 16.7516C43.6555 16.7516 42.7 17.1114 42.048 17.8308C41.4184 18.5503 40.9912 19.4833 40.7664 20.63C40.5641 21.7542 40.4629 23.1481 40.4629 24.8119C40.4629 26.5206 40.5641 27.9596 40.7664 29.1287C40.9688 30.2753 41.3959 31.2084 42.048 31.9279C42.7 32.6249 43.6555 32.9733 44.9146 32.9733C46.1736 32.9733 47.1292 32.6249 47.7812 31.9279C48.4332 31.2084 48.8604 30.2753 49.0628 29.1287C49.2651 27.9596 49.3663 26.5206 49.3663 24.8119ZM60.2421 37.6611C59.3877 37.6611 58.6795 37.4026 58.1174 36.8854C57.5778 36.3458 57.308 35.6826 57.308 34.8957C57.308 34.1088 57.5778 33.4567 58.1174 32.9396C58.6795 32.4 59.3877 32.1302 60.2421 32.1302C61.074 32.1302 61.7597 32.4 62.2993 32.9396C62.8389 33.4567 63.1087 34.1088 63.1087 34.8957C63.1087 35.6826 62.8389 36.3458 62.2993 36.8854C61.7597 37.4026 61.074 37.6611 60.2421 37.6611ZM66.3721 24.8119C66.3721 20.9223 67.0691 17.8758 68.4631 15.6724C69.8795 13.4691 72.2178 12.3674 75.4779 12.3674C78.7379 12.3674 81.065 13.4691 82.4589 15.6724C83.8754 17.8758 84.5836 20.9223 84.5836 24.8119C84.5836 28.724 83.8754 31.793 82.4589 34.0188C81.065 36.2447 78.7379 37.3576 75.4779 37.3576C72.2178 37.3576 69.8795 36.2447 68.4631 34.0188C67.0691 31.793 66.3721 28.724 66.3721 24.8119ZM79.9296 24.8119C79.9296 23.1481 79.8171 21.7542 79.5923 20.63C79.39 19.4833 78.9628 18.5503 78.3108 17.8308C77.6812 17.1114 76.7369 16.7516 75.4779 16.7516C74.2188 16.7516 73.2633 17.1114 72.6112 17.8308C71.9817 18.5503 71.5545 19.4833 71.3297 20.63C71.1273 21.7542 71.0262 23.1481 71.0262 24.8119C71.0262 26.5206 71.1273 27.9596 71.3297 29.1287C71.532 30.2753 71.9592 31.2084 72.6112 31.9279C73.2633 32.6249 74.2188 32.9733 75.4779 32.9733C76.7369 32.9733 77.6925 32.6249 78.3445 31.9279C78.9965 31.2084 79.4237 30.2753 79.626 29.1287C79.8284 27.9596 79.9296 26.5206 79.9296 24.8119ZM88.1748 24.8119C88.1748 20.9223 88.8718 17.8758 90.2657 15.6724C91.6822 13.4691 94.0205 12.3674 97.2805 12.3674C100.541 12.3674 102.868 13.4691 104.262 15.6724C105.678 17.8758 106.386 20.9223 106.386 24.8119C106.386 28.724 105.678 31.793 104.262 34.0188C102.868 36.2447 100.541 37.3576 97.2805 37.3576C94.0205 37.3576 91.6822 36.2447 90.2657 34.0188C88.8718 31.793 88.1748 28.724 88.1748 24.8119ZM101.732 24.8119C101.732 23.1481 101.62 21.7542 101.395 20.63C101.193 19.4833 100.765 18.5503 100.113 17.8308C99.4839 17.1114 98.5396 16.7516 97.2805 16.7516C96.0215 16.7516 95.0659 17.1114 94.4139 17.8308C93.7844 18.5503 93.3572 19.4833 93.1324 20.63C92.93 21.7542 92.8289 23.1481 92.8289 24.8119C92.8289 26.5206 92.93 27.9596 93.1324 29.1287C93.3347 30.2753 93.7619 31.2084 94.4139 31.9279C95.0659 32.6249 96.0215 32.9733 97.2805 32.9733C98.5396 32.9733 99.4952 32.6249 100.147 31.9279C100.799 31.2084 101.226 30.2753 101.429 29.1287C101.631 27.9596 101.732 26.5206 101.732 24.8119ZM109.977 24.8119C109.977 20.9223 110.674 17.8758 112.068 15.6724C113.485 13.4691 115.823 12.3674 119.083 12.3674C122.343 12.3674 124.67 13.4691 126.064 15.6724C127.481 17.8758 128.189 20.9223 128.189 24.8119C128.189 28.724 127.481 31.793 126.064 34.0188C124.67 36.2447 122.343 37.3576 119.083 37.3576C115.823 37.3576 113.485 36.2447 112.068 34.0188C110.674 31.793 109.977 28.724 109.977 24.8119ZM123.535 24.8119C123.535 23.1481 123.423 21.7542 123.198 20.63C122.995 19.4833 122.568 18.5503 121.916 17.8308C121.287 17.1114 120.342 16.7516 119.083 16.7516C117.824 16.7516 116.869 17.1114 116.217 17.8308C115.587 18.5503 115.16 19.4833 114.935 20.63C114.733 21.7542 114.632 23.1481 114.632 24.8119C114.632 26.5206 114.733 27.9596 114.935 29.1287C115.137 30.2753 115.565 31.2084 116.217 31.9279C116.869 32.6249 117.824 32.9733 119.083 32.9733C120.342 32.9733 121.298 32.6249 121.95 31.9279C122.602 31.2084 123.029 30.2753 123.231 29.1287C123.434 27.9596 123.535 26.5206 123.535 24.8119ZM149.958 27.4762H143.584V34.0188H139.132V27.4762H132.758V23.3617H139.132V16.8191H143.584V23.3617H149.958V27.4762Z" fill="white"/>
<path opacity="0.7" d="M6.6882 57.2276V58.2784H2.3856V61.6154H5.8788V62.6662H2.3856V67.125H1.0934V57.2276H6.6882ZM8.91627 58.0796C8.67014 58.0796 8.46187 57.9944 8.29147 57.824C8.12107 57.6536 8.03587 57.4453 8.03587 57.1992C8.03587 56.9531 8.12107 56.7448 8.29147 56.5744C8.46187 56.404 8.67014 56.3188 8.91627 56.3188C9.15294 56.3188 9.35174 56.404 9.51267 56.5744C9.68307 56.7448 9.76827 56.9531 9.76827 57.1992C9.76827 57.4453 9.68307 57.6536 9.51267 57.824C9.35174 57.9944 9.15294 58.0796 8.91627 58.0796ZM9.54107 59.3434V67.125H8.24887V59.3434H9.54107ZM15.5348 59.2014C16.4815 59.2014 17.2483 59.4901 17.8352 60.0676C18.4221 60.6356 18.7156 61.4592 18.7156 62.5384V67.125H17.4376V62.723C17.4376 61.9467 17.2435 61.3551 16.8554 60.948C16.4673 60.5315 15.9371 60.3232 15.265 60.3232C14.5834 60.3232 14.0391 60.5362 13.632 60.9622C13.2344 61.3882 13.0356 62.0083 13.0356 62.8224V67.125H11.7434V59.3434H13.0356V60.451C13.2912 60.0534 13.6367 59.7457 14.0722 59.528C14.5171 59.3103 15.0047 59.2014 15.5348 59.2014ZM23.5812 67.2528C22.9848 67.2528 22.4499 67.1534 21.9766 66.9546C21.5033 66.7463 21.1293 66.4623 20.8548 66.1026C20.5803 65.7334 20.4288 65.3121 20.4004 64.8388H21.7352C21.7731 65.2269 21.9529 65.5441 22.2748 65.7902C22.6061 66.0363 23.0369 66.1594 23.567 66.1594C24.0593 66.1594 24.4474 66.0505 24.7314 65.8328C25.0154 65.6151 25.1574 65.3405 25.1574 65.0092C25.1574 64.6684 25.0059 64.4175 24.703 64.2566C24.4001 64.0862 23.9315 63.9205 23.2972 63.7596C22.7197 63.6081 22.2464 63.4567 21.8772 63.3052C21.5175 63.1443 21.2051 62.9123 20.94 62.6094C20.6844 62.297 20.5566 61.8899 20.5566 61.3882C20.5566 60.9906 20.6749 60.6261 20.9116 60.2948C21.1483 59.9635 21.4843 59.7031 21.9198 59.5138C22.3553 59.315 22.8523 59.2156 23.4108 59.2156C24.2723 59.2156 24.9681 59.4333 25.4982 59.8688C26.0283 60.3043 26.3123 60.9007 26.3502 61.658H25.058C25.0296 61.2509 24.8639 60.9243 24.561 60.6782C24.2675 60.4321 23.8699 60.309 23.3682 60.309C22.9043 60.309 22.5351 60.4084 22.2606 60.6072C21.9861 60.806 21.8488 61.0663 21.8488 61.3882C21.8488 61.6438 21.9293 61.8568 22.0902 62.0272C22.2606 62.1881 22.4689 62.3207 22.715 62.4248C22.9706 62.5195 23.3209 62.6283 23.7658 62.7514C24.3243 62.9029 24.7787 63.0543 25.129 63.2058C25.4793 63.3478 25.7775 63.5655 26.0236 63.859C26.2792 64.1525 26.4117 64.5359 26.4212 65.0092C26.4212 65.4352 26.3029 65.8186 26.0662 66.1594C25.8295 66.5002 25.4935 66.77 25.058 66.9688C24.632 67.1581 24.1397 67.2528 23.5812 67.2528ZM38.6114 59.3434L36.1832 67.125H34.8484L32.974 60.948L31.0996 67.125H29.7648L27.3224 59.3434H28.643L30.4322 65.8754L32.3634 59.3434H33.684L35.5726 65.8896L37.3334 59.3434H38.6114ZM46.9938 62.936C46.9938 63.1821 46.9796 63.4425 46.9512 63.717H40.7316C40.7789 64.4838 41.0393 65.0849 41.5126 65.5204C41.9954 65.9464 42.5776 66.1594 43.2592 66.1594C43.8177 66.1594 44.2816 66.0316 44.6508 65.776C45.0295 65.5109 45.2945 65.1607 45.446 64.7252H46.8376C46.6293 65.4731 46.2128 66.0837 45.588 66.557C44.9632 67.0209 44.1869 67.2528 43.2592 67.2528C42.5208 67.2528 41.8581 67.0871 41.2712 66.7558C40.6937 66.4245 40.2393 65.9559 39.908 65.35C39.5767 64.7347 39.411 64.0247 39.411 63.22C39.411 62.4153 39.5719 61.7101 39.8938 61.1042C40.2157 60.4983 40.6653 60.0345 41.2428 59.7126C41.8297 59.3813 42.5019 59.2156 43.2592 59.2156C43.9976 59.2156 44.6508 59.3765 45.2188 59.6984C45.7868 60.0203 46.2223 60.4652 46.5252 61.0332C46.8376 61.5917 46.9938 62.226 46.9938 62.936ZM45.659 62.6662C45.659 62.1739 45.5501 61.7527 45.3324 61.4024C45.1147 61.0427 44.8165 60.7729 44.4378 60.593C44.0686 60.4037 43.6568 60.309 43.2024 60.309C42.5492 60.309 41.9907 60.5173 41.5268 60.9338C41.0724 61.3503 40.8121 61.9278 40.7458 62.6662H45.659ZM55.7995 62.936C55.7995 63.1821 55.7853 63.4425 55.7569 63.717H49.5373C49.5846 64.4838 49.8449 65.0849 50.3183 65.5204C50.8011 65.9464 51.3833 66.1594 52.0649 66.1594C52.6234 66.1594 53.0873 66.0316 53.4565 65.776C53.8351 65.5109 54.1002 65.1607 54.2517 64.7252H55.6433C55.435 65.4731 55.0185 66.0837 54.3937 66.557C53.7689 67.0209 52.9926 67.2528 52.0649 67.2528C51.3265 67.2528 50.6638 67.0871 50.0769 66.7558C49.4994 66.4245 49.045 65.9559 48.7137 65.35C48.3823 64.7347 48.2167 64.0247 48.2167 63.22C48.2167 62.4153 48.3776 61.7101 48.6995 61.1042C49.0213 60.4983 49.471 60.0345 50.0485 59.7126C50.6354 59.3813 51.3075 59.2156 52.0649 59.2156C52.8033 59.2156 53.4565 59.3765 54.0245 59.6984C54.5925 60.0203 55.0279 60.4652 55.3309 61.0332C55.6433 61.5917 55.7995 62.226 55.7995 62.936ZM54.4647 62.6662C54.4647 62.1739 54.3558 61.7527 54.1381 61.4024C53.9203 61.0427 53.6221 60.7729 53.2435 60.593C52.8743 60.4037 52.4625 60.309 52.0081 60.309C51.3549 60.309 50.7963 60.5173 50.3325 60.9338C49.8781 61.3503 49.6177 61.9278 49.5515 62.6662H54.4647ZM59.0813 60.4084V64.995C59.0813 65.3737 59.1618 65.6435 59.3227 65.8044C59.4837 65.9559 59.7629 66.0316 60.1605 66.0316H61.1119V67.125H59.9475C59.2281 67.125 58.6885 66.9593 58.3287 66.628C57.969 66.2967 57.7891 65.7523 57.7891 64.995V60.4084H56.7809V59.3434H57.7891V57.3838H59.0813V59.3434H61.1119V60.4084H59.0813ZM67.7271 57.2276V63.4898C67.7271 64.3702 67.9401 65.0234 68.3661 65.4494C68.8016 65.8754 69.4027 66.0884 70.1695 66.0884C70.9269 66.0884 71.5185 65.8754 71.9445 65.4494C72.38 65.0234 72.5977 64.3702 72.5977 63.4898V57.2276H73.8899V63.4756C73.8899 64.2992 73.7243 64.995 73.3929 65.563C73.0616 66.1215 72.6119 66.5381 72.0439 66.8126C71.4854 67.0871 70.8559 67.2244 70.1553 67.2244C69.4548 67.2244 68.8205 67.0871 68.2525 66.8126C67.694 66.5381 67.2491 66.1215 66.9177 65.563C66.5959 64.995 66.4349 64.2992 66.4349 63.4756V57.2276H67.7271ZM78.8003 67.2528C78.2039 67.2528 77.6691 67.1534 77.1957 66.9546C76.7224 66.7463 76.3485 66.4623 76.0739 66.1026C75.7994 65.7334 75.6479 65.3121 75.6195 64.8388H76.9543C76.9922 65.2269 77.1721 65.5441 77.4939 65.7902C77.8253 66.0363 78.256 66.1594 78.7861 66.1594C79.2784 66.1594 79.6665 66.0505 79.9505 65.8328C80.2345 65.6151 80.3765 65.3405 80.3765 65.0092C80.3765 64.6684 80.2251 64.4175 79.9221 64.2566C79.6192 64.0862 79.1506 63.9205 78.5163 63.7596C77.9389 63.6081 77.4655 63.4567 77.0963 63.3052C76.7366 63.1443 76.4242 62.9123 76.1591 62.6094C75.9035 62.297 75.7757 61.8899 75.7757 61.3882C75.7757 60.9906 75.8941 60.6261 76.1307 60.2948C76.3674 59.9635 76.7035 59.7031 77.1389 59.5138C77.5744 59.315 78.0714 59.2156 78.6299 59.2156C79.4914 59.2156 80.1872 59.4333 80.7173 59.8688C81.2475 60.3043 81.5315 60.9007 81.5693 61.658H80.2771C80.2487 61.2509 80.0831 60.9243 79.7801 60.6782C79.4867 60.4321 79.0891 60.309 78.5873 60.309C78.1235 60.309 77.7543 60.4084 77.4797 60.6072C77.2052 60.806 77.0679 61.0663 77.0679 61.3882C77.0679 61.6438 77.1484 61.8568 77.3093 62.0272C77.4797 62.1881 77.688 62.3207 77.9341 62.4248C78.1897 62.5195 78.54 62.6283 78.9849 62.7514C79.5435 62.9029 79.9979 63.0543 80.3481 63.2058C80.6984 63.3478 80.9966 63.5655 81.2427 63.859C81.4983 64.1525 81.6309 64.5359 81.6403 65.0092C81.6403 65.4352 81.522 65.8186 81.2853 66.1594C81.0487 66.5002 80.7126 66.77 80.2771 66.9688C79.8511 67.1581 79.3589 67.2528 78.8003 67.2528ZM90.5645 62.936C90.5645 63.1821 90.5503 63.4425 90.5219 63.717H84.3023C84.3496 64.4838 84.61 65.0849 85.0833 65.5204C85.5661 65.9464 86.1483 66.1594 86.8299 66.1594C87.3884 66.1594 87.8523 66.0316 88.2215 65.776C88.6002 65.5109 88.8652 65.1607 89.0167 64.7252H90.4083C90.2 65.4731 89.7835 66.0837 89.1587 66.557C88.5339 67.0209 87.7576 67.2528 86.8299 67.2528C86.0915 67.2528 85.4288 67.0871 84.8419 66.7558C84.2644 66.4245 83.81 65.9559 83.4787 65.35C83.1474 64.7347 82.9817 64.0247 82.9817 63.22C82.9817 62.4153 83.1426 61.7101 83.4645 61.1042C83.7864 60.4983 84.236 60.0345 84.8135 59.7126C85.4004 59.3813 86.0726 59.2156 86.8299 59.2156C87.5683 59.2156 88.2215 59.3765 88.7895 59.6984C89.3575 60.0203 89.793 60.4652 90.0959 61.0332C90.4083 61.5917 90.5645 62.226 90.5645 62.936ZM89.2297 62.6662C89.2297 62.1739 89.1208 61.7527 88.9031 61.4024C88.6854 61.0427 88.3872 60.7729 88.0085 60.593C87.6393 60.4037 87.2275 60.309 86.7731 60.309C86.1199 60.309 85.5614 60.5173 85.0975 60.9338C84.6431 61.3503 84.3828 61.9278 84.3165 62.6662H89.2297ZM93.5624 60.6072C93.7896 60.1623 94.1114 59.8167 94.528 59.5706C94.954 59.3245 95.4699 59.2014 96.0758 59.2014V60.5362H95.735C94.2866 60.5362 93.5624 61.3219 93.5624 62.8934V67.125H92.2702V59.3434H93.5624V60.6072ZM100.322 67.2528C99.7258 67.2528 99.191 67.1534 98.7176 66.9546C98.2443 66.7463 97.8704 66.4623 97.5958 66.1026C97.3213 65.7334 97.1698 65.3121 97.1414 64.8388H98.4762C98.5141 65.2269 98.694 65.5441 99.0158 65.7902C99.3472 66.0363 99.7779 66.1594 100.308 66.1594C100.8 66.1594 101.188 66.0505 101.472 65.8328C101.756 65.6151 101.898 65.3405 101.898 65.0092C101.898 64.6684 101.747 64.4175 101.444 64.2566C101.141 64.0862 100.672 63.9205 100.038 63.7596C99.4608 63.6081 98.9874 63.4567 98.6182 63.3052C98.2585 63.1443 97.9461 62.9123 97.681 62.6094C97.4254 62.297 97.2976 61.8899 97.2976 61.3882C97.2976 60.9906 97.416 60.6261 97.6526 60.2948C97.8893 59.9635 98.2254 59.7031 98.6608 59.5138C99.0963 59.315 99.5933 59.2156 100.152 59.2156C101.013 59.2156 101.709 59.4333 102.239 59.8688C102.769 60.3043 103.053 60.9007 103.091 61.658H101.799C101.771 61.2509 101.605 60.9243 101.302 60.6782C101.009 60.4321 100.611 60.309 100.109 60.309C99.6454 60.309 99.2762 60.4084 99.0016 60.6072C98.7271 60.806 98.5898 61.0663 98.5898 61.3882C98.5898 61.6438 98.6703 61.8568 98.8312 62.0272C99.0016 62.1881 99.2099 62.3207 99.456 62.4248C99.7116 62.5195 100.062 62.6283 100.507 62.7514C101.065 62.9029 101.52 63.0543 101.87 63.2058C102.22 63.3478 102.518 63.5655 102.765 63.859C103.02 64.1525 103.153 64.5359 103.162 65.0092C103.162 65.4352 103.044 65.8186 102.807 66.1594C102.571 66.5002 102.234 66.77 101.799 66.9688C101.373 67.1581 100.881 67.2528 100.322 67.2528Z" fill="white"/>
</svg>
