<svg width="29" height="30" viewBox="0 0 29 30" fill="none" xmlns="http://www.w3.org/2000/svg">
<path d="M7.58233 23.0704C7.25732 23.3952 7.25732 23.9222 7.58233 24.247L9.73955 26.4042L7.29286 28.8509C6.96806 29.1759 6.4411 29.1759 6.11631 28.8509L0.625107 23.3597C0.300094 23.0349 0.300094 22.5079 0.625107 22.1831L21.8699 0.93834C22.1947 0.613327 22.7217 0.613327 23.0464 0.93834L28.5376 6.42932C28.7002 6.59183 28.7814 6.80482 28.7814 7.01781C28.7814 7.23059 28.7002 7.44358 28.5376 7.60609L26.091 10.0528L23.1494 7.11098C22.8244 6.78597 22.2976 6.78597 21.9726 7.11098C21.6478 7.436 21.6478 7.96274 21.9726 8.28775L24.9142 11.2293L23.056 13.0878L20.8988 10.9303C20.574 10.6055 20.047 10.6055 19.722 10.9303C19.3972 11.2553 19.3972 11.7821 19.722 12.1071L21.8792 14.2643L20.021 16.1227L17.0794 13.1809C16.7544 12.8561 16.2277 12.8561 15.9027 13.1809C15.5779 13.5059 15.5779 14.0327 15.9027 14.3577L18.8442 17.2993L16.986 19.1577L14.8288 17.0005C14.5038 16.6755 13.9771 16.6755 13.6521 17.0005C13.3273 17.3253 13.3273 17.852 13.6521 18.177L15.8093 20.3342L13.9511 22.1927L11.0095 19.2509C10.6845 18.9261 10.1577 18.9261 9.83272 19.2509C9.50793 19.5759 9.50793 20.1026 9.83272 20.4276L12.7743 23.3692L10.9161 25.2276L8.75888 23.0704C8.43408 22.7454 7.90713 22.7454 7.58233 23.0704Z" fill="#FF7800"/>
</svg>
